<?xml version="1.0" encoding="utf-8"?>
<!-- Generator: Adobe Illustrator 27.6.0, SVG Export Plug-In . SVG Version: 6.00 Build 0)  -->
<svg version="1.1" id="Layer_1" xmlns="http://www.w3.org/2000/svg" xmlns:xlink="http://www.w3.org/1999/xlink" x="0px" y="0px"
	 viewBox="0 0 868 967" style="enable-background:new 0 0 868 967;" xml:space="preserve">
<style type="text/css">
	.st0{fill:#FFE34D;}
	.st1{fill:#009B3D;}
	.st2{fill:#8CBD21;}
	.st3{fill:url(#SVGID_1_);}
	.st4{fill:#FFFFFF;}
	.st5{stroke:#000000;stroke-miterlimit:10;}
</style>
<g>
	<g>
		<path class="st0" d="M176.4,345.3c0,0-77.4-134.5,47.3-242.8c0,0,117.4-105.9,252.6,0c0,0,126.3,106.8,44,247.7l2.8,2.8
			c0,0,108-142.2-28.9-273.4c0,0-127.1-128.7-290.9,0c0,0-120.6,107.6-35.8,265.7l3.3,3.1L176.4,345.3z"/>
		<path class="st1" d="M352.5,349.5c0,0,17.9-79.9-53-132c0,0-30.2-24.5-20.4-4.1c0,0,28.5,29.4,46.2,64c0,0-7.2,16.7-48.2,0
			c0,0-55.7-28.9-54.5-134.7c0,0,37.9,38.5,81.3,45.2c0,0,67.8,23.8,41.9,78.2c0,0,14.4,49.5,21.1,37.3c0,0,6.1-10.4,10.4-20.8v-4.9
			c0,0-18.9-40.3,36.1-58.7c0,0,35.7-2.3,64.8-38.6c0,0,0.5,115.8-72.5,115.7c0,0-11.3-1.3-11.3-8.6c0,0,17.1-28.1,41-52.6
			c0,0-1.8-12.8-23.2,5.5c0,0-29.9,26.3-36.7,54.4c0,0-10.6,15.3-5,61.1c0,0-9.7,1.2-20.1,0L352.5,349.5z"/>
		<path class="st2" d="M173.5,351.8c0,0,87.2-17.4,125.5-7.6c0,0,175.2,34.5,219.2,14.2c0,0-31.8,23.1-154,6.6
			c0,0-27.7-7.5-98.6-15.6C265.6,349.4,249.3,343.7,173.5,351.8z"/>
	</g>
	<g>
		
			<radialGradient id="SVGID_1_" cx="352.6104" cy="427.5611" r="286.8565" gradientTransform="matrix(1 0 0 -1 0 968)" gradientUnits="userSpaceOnUse">
			<stop  offset="0" style="stop-color:#8BBD36"/>
			<stop  offset="0.9027" style="stop-color:#009540"/>
		</radialGradient>
		<path class="st3" d="M65,704.8h561.7c27.5,0,49.8-22.3,49.8-49.8V464.9c0-27.5-22.3-49.8-49.8-49.8H65
			c-27.5,0-49.8,22.3-49.8,49.8v190.1C15.2,682.6,37.5,704.8,65,704.8z"/>
		<g>
			<rect x="594.6" y="447.2" class="st4" width="34.8" height="168.1"/>
			<path class="st4" d="M572.3,447.2h-35.7V581c0,0,0.3,6.1-8.9,9.5h-28.1c0,0-4.9-44.6-21.4-71.7c0,0-13.1-30.1-55.6-31.6
				c0,0-21.4,0.3-31.5,4.3l9.8,23.8c0,0,31.5-8.6,44,12.2c0,0,13.1,13.8,18.3,62.9H359.3c0,0-5.8-0.3-7.9-9.2V447.2h-34.5v136.3
				c0,0-2.7,7.9-9.2,7l-33.3,0.1c0,0-4-3.4-4.9-9.8v-81.6l-35.1-0.6v84.6c0,0-0.9,6.9-7.3,7.4h-29.3c0,0-6.4-0.7-8.6-28.8
				c0,0-12.2-79.8-64.5-82.8c-52.3-3.1-39.1,8.6-39.1,8.6l7,18.3c0,0,35.7-7.6,47.1,16.2c0,0,11.6,18,13.4,41.3
				c0,0-50.1-2.7-73,19.9c-22.9,22.6-29.3,66.3,15.9,91.7c0,0,38.5,20.5,89.8,4.6l-10.4-26c0,0-38.5,14.4-65.7-5.2
				c0,0-29.9-26.3,2.7-51.9c0,0,8.3-8.9,47.7-3.1c0,0,6.1,18,25.7,22.3c0,0,33.9,6.1,52.9,0.6c0,0,8.6-1.8,12.2-6.4
				c0,0,0.3,3.7,13.8,6.1c13.4,2.4,54.7,1.5,54.7,1.5s10.7,0.3,15.3-7.9c0,0,5.5,6.7,15.3,7l148.5,1.2c0,0,52.3,6.7,63.3-14.1
				c0,0,14.7-9.5,10.7-33.6L572.3,447.2L572.3,447.2z"/>
			<circle class="st4" cx="135.7" cy="631.7" r="17.1"/>
			<circle class="st4" cx="228" cy="654" r="17.1"/>
			<circle class="st4" cx="271.1" cy="654" r="17.1"/>
			<circle class="st4" cx="428.8" cy="451.7" r="17.1"/>
		</g>
	</g>
</g>
<path class="st0" d="M57.4,934.4L57.4,934.4c4.2,0,7.5-3.4,7.5-7.5V755.1c0-4.2-3.4-7.5-7.5-7.5l0,0c-4.2,0-7.5,3.4-7.5,7.5v171.8
	C49.8,931.1,53.2,934.4,57.4,934.4z"/>
<g>
	<path class="st5" d="M100.4,814.7h25.5v7.6H93.1V759h32.5v7.6h-25.1v19.8h22l-0.8,7.4h-21.2L100.4,814.7L100.4,814.7z"/>
	<path class="st5" d="M155.7,814.5h25.5v7.8h-32.9V759h7.4V814.5z"/>
	<path class="st5" d="M217.1,789.4l24,32.4v0.6h-8.9L208.4,790v32.4H201V759h7.4v30.2l23.3-30.2h8.4v0.6L217.1,789.4z"/>
	<path class="st5" d="M296.4,759h7.4v63.3h-7.4v-28.4h-28.7v28.4h-7.4V759h7.4v27.3h28.7V759z"/>
	<path class="st5" d="M352.1,759l19.5,62.8v0.6h-7.7l-5.4-18.1h-22.1l-5.4,18.1h-7.4v-0.6l19.5-62.8H352.1z M338.6,796.8h17.6
		l-8.8-29.3L338.6,796.8z"/>
	<path class="st5" d="M398.8,814.5h25.5v7.8h-32.9V759h7.4L398.8,814.5L398.8,814.5z"/>
	<path class="st5" d="M451.5,814.7H477v7.6h-32.9V759h32.5v7.6h-25.1v19.8h22l-0.8,7.4h-21.2L451.5,814.7L451.5,814.7z"/>
	<path class="st5" d="M506.7,814.7h25.5v7.6h-32.9V759h32.5v7.6h-25.1v19.8h22l-0.8,7.4h-21.2L506.7,814.7L506.7,814.7z"/>
	<path class="st5" d="M548,817.9l3.9-6.7c1.6,1.4,3.1,2.5,4.7,3.3c1.6,0.7,3.3,1.1,5.3,1.1c2.9,0,5.1-1.1,6.6-3.2
		c1.5-2.1,2.2-5.1,2.2-9V759h7.4v44.6c0,4.8-0.7,8.6-2.1,11.6c-1.4,3-3.3,5.1-5.7,6.4s-5,2-8,2C556.8,823.5,552,821.6,548,817.9z"/>
	<path class="st5" d="M110.6,871.3H95.1v13.2h13.5l-0.5,4.7h-13v16.5h-4.6v-39.1h20.1V871.3z"/>
	<path class="st5" d="M128.4,903.9c-2.2-1.7-3.9-4.1-5.1-7.2c-1.1-3.1-1.7-6.6-1.7-10.7c0-4.5,0.7-8.3,2.1-11.3
		c1.4-3,3.2-5.2,5.5-6.7c2.3-1.5,4.9-2.2,7.7-2.2c3.2,0,5.9,0.8,8.2,2.6s3.9,4.1,5.1,7.2s1.7,6.6,1.7,10.7c0,4.5-0.7,8.3-2.1,11.3
		c-1.4,3-3.2,5.2-5.5,6.7c-2.3,1.5-4.9,2.2-7.7,2.2C133.3,906.4,130.6,905.6,128.4,903.9z M142.4,899.8c1.6-1.3,2.7-3.1,3.5-5.4
		c0.8-2.3,1.2-5,1.2-8c0-3.1-0.4-5.9-1.1-8.2s-1.9-4.2-3.4-5.5c-1.5-1.3-3.4-2-5.7-2c-2.3,0-4.3,0.7-5.9,2c-1.6,1.3-2.7,3.1-3.5,5.4
		c-0.8,2.3-1.2,5-1.2,8c0,3.1,0.4,5.9,1.1,8.2c0.7,2.3,1.9,4.2,3.4,5.5c1.5,1.3,3.4,2,5.7,2C138.9,901.7,140.8,901.1,142.4,899.8z"
		/>
	<path class="st5" d="M189.3,905.4v0.4H184l-9.3-15.3H170v15.3h-4.6v-39.1h10.5c2.5,0,4.6,0.5,6.4,1.5c1.7,1,3,2.3,3.9,4
		s1.3,3.7,1.3,6c0,1.9-0.3,3.6-0.9,5.1c-0.6,1.6-1.4,2.9-2.6,4.1c-1.1,1.1-2.6,2-4.3,2.5L189.3,905.4z M170,885.9h5.2
		c2.5,0,4.3-0.6,5.6-2c1.3-1.3,1.9-3.1,1.9-5.5c0-2.3-0.6-4-1.8-5.2c-1.2-1.2-2.9-1.8-5.2-1.8H170L170,885.9L170,885.9z"/>
	<path class="st5" d="M220.8,905.7v-39.1h4.6v39.1L220.8,905.7L220.8,905.7z"/>
	<path class="st5" d="M273.3,866.6v39.1h-4.5v-30.1c-0.5,1.7-1.1,3.5-1.9,5.4l-7.7,18.3h-4.4l-7.6-18.3c-0.4-1-0.8-2-1.2-2.9
		s-0.7-1.8-0.9-2.4v30h-4.4v-39.1h5.2l7.2,17.3c1.9,4.7,3.2,8.2,3.9,10.6c0.4-1.4,0.9-2.9,1.5-4.6c0.6-1.7,1.4-3.7,2.4-5.9l7.3-17.3
		H273.3z"/>
	<path class="st5" d="M306,868.1c1.8,1,3.1,2.4,4,4.2c0.9,1.8,1.3,3.9,1.3,6.3c0,2.4-0.5,4.5-1.4,6.5c-0.9,1.9-2.3,3.5-4.1,4.6
		c-1.8,1.1-4.1,1.7-6.8,1.7h-5.7v14.4h-4.6v-39.1h10.7C302,866.6,304.2,867.1,306,868.1z M304.6,884.5c1.3-1.4,2-3.3,2-5.8
		c0-2.4-0.6-4.3-1.8-5.5s-3-1.9-5.4-1.9h-6v15.3h5.4C301.3,886.6,303.3,885.9,304.6,884.5z"/>
	<path class="st5" d="M329,903.9c-2.2-1.7-3.9-4.1-5.1-7.2c-1.1-3.1-1.7-6.6-1.7-10.7c0-4.5,0.7-8.3,2.1-11.3c1.4-3,3.2-5.2,5.5-6.7
		c2.3-1.5,4.9-2.2,7.7-2.2c3.2,0,5.9,0.8,8.2,2.6c2.2,1.7,3.9,4.1,5.1,7.2c1.1,3.1,1.7,6.6,1.7,10.7c0,4.5-0.7,8.3-2.1,11.3
		s-3.2,5.2-5.5,6.7c-2.3,1.5-4.9,2.2-7.7,2.2C333.9,906.4,331.2,905.6,329,903.9z M343,899.8c1.6-1.3,2.7-3.1,3.5-5.4
		c0.8-2.3,1.2-5,1.2-8c0-3.1-0.4-5.9-1.1-8.2c-0.7-2.4-1.9-4.2-3.4-5.5c-1.5-1.3-3.4-2-5.7-2c-2.3,0-4.3,0.7-5.9,2
		c-1.6,1.3-2.7,3.1-3.5,5.4c-0.8,2.3-1.2,5-1.2,8c0,3.1,0.4,5.9,1.1,8.2c0.7,2.3,1.9,4.2,3.4,5.5c1.5,1.3,3.4,2,5.7,2
		C339.5,901.7,341.4,901.1,343,899.8z"/>
	<path class="st5" d="M389.9,905.4v0.4h-5.2l-9.3-15.3h-4.8v15.3h-4.6v-39.1h10.5c2.5,0,4.6,0.5,6.4,1.5c1.7,1,3,2.3,3.9,4
		c0.9,1.7,1.3,3.7,1.3,6c0,1.9-0.3,3.6-0.9,5.1c-0.6,1.6-1.4,2.9-2.6,4.1s-2.6,2-4.3,2.5L389.9,905.4z M370.6,885.9h5.2
		c2.5,0,4.4-0.6,5.6-2c1.3-1.3,1.9-3.1,1.9-5.5c0-2.3-0.6-4-1.8-5.2s-2.9-1.8-5.2-1.8h-5.8L370.6,885.9L370.6,885.9z"/>
	<path class="st5" d="M425.8,866.6v4.8h-11.1v34.3h-4.6v-34.3H399v-4.8H425.8z"/>
	<path class="st5" d="M482.8,906.4l-5.2-5.4c-3.5,3.6-7.4,5.4-11.6,5.4c-2,0-3.8-0.4-5.4-1.2c-1.6-0.8-2.9-1.9-3.8-3.5
		c-0.9-1.5-1.4-3.4-1.4-5.5c0-1.9,0.3-3.5,0.9-4.9c0.6-1.4,1.3-2.7,2.3-3.7c0.9-1,2-2,3.3-3c-1.6-1.8-2.7-3.3-3.4-4.7
		c-0.7-1.4-1-2.8-1-4.4c0-1.7,0.4-3.3,1.1-4.8c0.7-1.5,1.7-2.7,3.1-3.6c1.3-0.9,2.9-1.3,4.7-1.3c1.7,0,3.1,0.4,4.4,1
		c1.3,0.7,2.3,1.7,3.1,3c0.8,1.3,1.1,2.9,1.1,4.6c0,1.7-0.3,3.2-0.9,4.4c-0.6,1.3-1.4,2.4-2.3,3.3c-0.9,0.9-2.1,1.9-3.5,2.9l9.1,9.4
		c1.4-2.1,2.7-4.8,4-8l3.9,1.9c-1.5,3.7-3.1,6.7-4.9,9.2l5.2,5.3L482.8,906.4z M474.6,898l-9.9-10.3c-1.5,1.2-2.7,2.4-3.5,3.7
		c-0.8,1.3-1.2,2.8-1.2,4.6c0,1,0.2,2,0.7,2.9c0.5,0.9,1.2,1.6,2.1,2.1c0.9,0.5,2.1,0.8,3.4,0.8C469.4,901.7,472.2,900.5,474.6,898z
		 M462.5,878.6c0.5,0.9,1.5,2.2,2.8,3.7c1.8-1.2,3.1-2.3,4-3.4c0.9-1.1,1.4-2.5,1.4-4.1c0-0.8-0.2-1.6-0.5-2.4
		c-0.4-0.7-0.9-1.3-1.6-1.8c-0.7-0.4-1.5-0.7-2.4-0.7c-1.6,0-2.7,0.5-3.4,1.6c-0.7,1.1-1.1,2.4-1.1,4
		C461.8,876.6,462,877.6,462.5,878.6z"/>
	<path class="st5" d="M521.4,901h15.7v4.7h-20.3v-39.1h20.1v4.7h-15.5v12.2H535l-0.5,4.6h-13.1L521.4,901L521.4,901z"/>
	<path class="st5" d="M564.1,885.4l10.9,20.3h-5.3l-8.4-16.5l-8.7,16.5h-4.8l10.8-20.1l-10.3-19h5.3l8,15.2l8-15.2h4.8L564.1,885.4z
		"/>
	<path class="st5" d="M604.4,868.1c1.8,1,3.1,2.4,4,4.2c0.9,1.8,1.3,3.9,1.3,6.3c0,2.4-0.5,4.5-1.4,6.5c-0.9,1.9-2.3,3.5-4.1,4.6
		c-1.8,1.1-4.1,1.7-6.8,1.7h-5.7v14.4h-4.6v-39.1h10.7C600.5,866.6,602.7,867.1,604.4,868.1z M603.1,884.5c1.3-1.4,2-3.3,2-5.8
		c0-2.4-0.6-4.3-1.8-5.5s-3-1.9-5.4-1.9h-6v15.3h5.4C599.8,886.6,601.8,885.9,603.1,884.5z"/>
	<path class="st5" d="M627.5,903.9c-2.2-1.7-3.9-4.1-5.1-7.2s-1.7-6.6-1.7-10.7c0-4.5,0.7-8.3,2.1-11.3c1.4-3,3.2-5.2,5.5-6.7
		c2.3-1.5,4.9-2.2,7.7-2.2c3.2,0,5.9,0.8,8.2,2.6s3.9,4.1,5.1,7.2c1.1,3.1,1.7,6.6,1.7,10.7c0,4.5-0.7,8.3-2.1,11.3
		c-1.4,3-3.2,5.2-5.5,6.7c-2.3,1.5-4.9,2.2-7.7,2.2C632.4,906.4,629.7,905.6,627.5,903.9z M641.5,899.8c1.6-1.3,2.7-3.1,3.5-5.4
		c0.8-2.3,1.2-5,1.2-8c0-3.1-0.4-5.9-1.1-8.2s-1.9-4.2-3.4-5.5c-1.5-1.3-3.4-2-5.7-2c-2.3,0-4.3,0.7-5.9,2c-1.6,1.3-2.7,3.1-3.5,5.4
		c-0.8,2.3-1.2,5-1.2,8c0,3.1,0.4,5.9,1.1,8.2c0.7,2.3,1.9,4.2,3.4,5.5c1.5,1.3,3.4,2,5.7,2C638,901.7,639.9,901.1,641.5,899.8z"/>
	<path class="st5" d="M688.4,905.4v0.4h-5.2l-9.3-15.3h-4.8v15.3h-4.6v-39.1H675c2.5,0,4.6,0.5,6.4,1.5c1.7,1,3,2.3,3.9,4
		c0.9,1.7,1.3,3.7,1.3,6c0,1.9-0.3,3.6-0.9,5.1c-0.6,1.6-1.4,2.9-2.6,4.1s-2.6,2-4.3,2.5L688.4,905.4z M669.1,885.9h5.2
		c2.5,0,4.4-0.6,5.6-2c1.3-1.3,1.9-3.1,1.9-5.5c0-2.3-0.6-4-1.8-5.2s-2.9-1.8-5.2-1.8h-5.8L669.1,885.9L669.1,885.9z"/>
	<path class="st5" d="M724.3,866.6v4.8h-11.1v34.3h-4.6v-34.3h-11.1v-4.8H724.3z"/>
</g>
</svg>
